Coordinates
version=1
nRows=13
nColumns=22
inDegrees=yes

Units are S.I. units (second, meters, Newtons, ...)
If the header above contains a line with 'inDegrees', this indicates whether rotational values are in degrees (yes) or radians (no).

endheader
time	pelvis_tilt	pelvis_list	pelvis_rotation	pelvis_tx	pelvis_ty	pelvis_tz	hip_flexion_r	hip_adduction_r	hip_rotation_r	knee_angle_r	ankle_angle_r	subtalar_angle_r	hip_flexion_l	hip_adduction_l	hip_rotation_l	knee_angle_l	ankle_angle_l	subtalar_angle_l	lumbar_extension	lumbar_bending	lumbar_rotation
      1.28000000	     -4.08130048	     -5.41714602	     17.10020701	     -0.76327078	      0.86475317	     -0.71349592	     35.58703872	     -0.03167359	     -4.27714663	    -19.30484165	      1.28534879	      8.88605702	     -9.75609550	     -4.20412031	     11.47488521	    -14.95855214	     19.37892701	      2.84873414	     -4.98076474	      3.88563559	     -0.24225205
      1.29000000	     -4.38857669	     -5.17800661	     17.37473543	     -0.75629005	      0.86297855	     -0.71506022	     34.88569543	     -0.36898474	     -4.75041769	    -17.05194632	      1.25787640	      9.35026859	    -10.01058040	     -3.99135663	     11.68325506	    -14.90762233	     19.19719875	      2.99675692	     -4.66719367	      3.67427440	     -0.47114543
      1.30000000	     -4.72827781	     -4.96639907	     17.65403034	     -0.74909333	      0.86113735	     -0.71664911	     34.21993684	     -0.68908453	     -5.34224102	    -14.95535284	      1.30959330	      9.76246081	    -10.24862379	     -3.81070396	     11.92331292	    -14.83202573	     18.97898898	      3.15328966	     -4.30141222	      3.48714523	     -0.70169185
      1.31000000	     -5.07314157	     -4.76275503	     17.90193374	     -0.74167903	      0.85928533	     -0.71819769	     33.56200043	     -0.97487480	     -5.97840617	    -13.02924494	      1.36541888	     10.26596277	    -10.49907736	     -3.64549179	     12.14412834	    -14.75040968	     18.73997561	      3.36492549	     -3.92815828	      3.30684130	     -0.86836643
      1.32000000	     -5.42901873	     -4.58513142	     18.12297480	     -0.73403116	      0.85741596	     -0.71969048	     32.93646220	     -1.21263321	     -6.67587526	    -11.31269445	      1.40022872	     10.75326297	    -10.75262743	     -3.51610182	     12.36295591	    -14.65473514	     18.47391483	      3.62460267	     -3.53148982	      3.14994353	     -0.98742496
      1.33000000	     -5.78245312	     -4.44544823	     18.31638295	     -0.72612554	      0.85556454	     -0.72112939	     32.33994319	     -1.38698565	     -7.42198466	     -9.82895093	      1.36191140	     11.15705465	    -11.02238312	     -3.44132202	     12.58035703	    -14.53874226	     18.17476566	      3.93872631	     -3.11721798	      3.03726990	     -1.06485678
      1.34000000	     -6.12647031	     -4.35434070	     18.47208089	     -0.71797691	      0.85376263	     -0.72248647	     31.78776107	     -1.48197256	     -8.18712629	     -8.60494994	      1.19322060	     11.41168914	    -11.30687624	     -3.43215053	     12.79244564	    -14.40940169	     17.83295547	      4.30958093	     -2.69439157	      2.98289817	     -1.08934886
      1.35000000	     -6.44502474	     -4.32648022	     18.58253675	     -0.70958658	      0.85206486	     -0.72376940	     31.28495650	     -1.48127233	     -8.94026831	     -7.65583932	      0.84750399	     11.45591065	    -11.61340996	     -3.50533336	     12.98667933	    -14.27436487	     17.42820159	      4.75123768	     -2.27420573	      3.01543751	     -1.05868435
      1.36000000	     -6.72244373	     -4.36766785	     18.63175033	     -0.70097521	      0.85053683	     -0.72493187	     30.85036845	     -1.36981216	     -9.64214791	     -7.00753953	      0.28082574	     11.17934814	    -11.94800171	     -3.66716801	     13.15267006	    -14.14713322	     16.96142427	      5.28453587	     -1.87794934	      3.14612682	     -0.95229293
      1.37000000	     -6.96059994	     -4.48228894	     18.61052123	     -0.69217459	      0.84922608	     -0.72598583	     30.50184292	     -1.14509187	    -10.22981889	     -6.64482752	     -0.48041243	     10.48196227	    -12.29204459	     -3.91030839	     13.28517479	    -14.05559382	     16.41581662	      5.86238047	     -1.50558232	      3.38810203	     -0.78126343
      1.38000000	     -7.14260310	     -4.66630297	     18.50405028	     -0.68322173	      0.84820884	     -0.72690683	     30.25618584	     -0.80316149	    -10.67257601	     -6.59009735	     -1.39110445	      9.35419286	    -12.64322723	     -4.22471453	     13.34875850	    -14.03823535	     15.77908825	      6.45860244	     -1.18568002	      3.74555700	     -0.53430294
      1.39000000	     -7.26999769	     -4.91263197	     18.29508343	     -0.67414125	      0.84752306	     -0.72768271	     30.12651239	     -0.34488343	    -10.90452704	     -6.84053058	     -2.31722708	      7.81222055	    -12.98964325	     -4.59050163	     13.32400213	    -14.12294535	     15.04086314	      7.08572819	     -0.92506087	      4.21428439	     -0.19523435
      1.40000000	     -7.34763473	     -5.20853443	     17.97256111	     -0.66495733	      0.84719911	     -0.72830577	     30.11370232	      0.22227001	    -10.87482108	     -7.38767223	     -3.11899235	      5.94716593	    -13.31159118	     -4.98160333	     13.18720207	    -14.34591587	     14.18167453	      7.75340877	     -0.72944658	      4.77826226	      0.24603646
